<?xml version="1.0" encoding="utf-8"?>
<!-- Generator: Adobe Illustrator 16.0.0, SVG Export Plug-In . SVG Version: 6.00 Build 0)  -->
<!DOCTYPE svg PUBLIC "-//W3C//DTD SVG 1.1//EN" "http://www.w3.org/Graphics/SVG/1.1/DTD/svg11.dtd">
<svg version="1.1" id="Layer_1" xmlns="http://www.w3.org/2000/svg" xmlns:xlink="http://www.w3.org/1999/xlink" x="0px" y="0px"
	 width="900px" height="200px" viewBox="0 0 900 200" enable-background="new 0 0 900 200" xml:space="preserve">
<polygon fill="#FFFFFF" points="606.135,47.396 606.135,47.396 606.139,47.396 606.139,47.396 606.135,47.396 "/>
<rect x="497.017" y="36.903" fill="#0E1131" width="0" height="0.002"/>
<polygon fill="#0E1131" points="428.124,35.887 428.124,35.887 428.121,35.887 428.121,35.887 428.124,35.887 "/>
<polygon fill="#0E1131" points="416.439,31.536 416.439,31.315 416.438,31.536 416.439,31.536 "/>
<g>
	<defs>
		<rect id="SVGID_1_" width="900" height="200"/>
	</defs>
	<clipPath id="SVGID_2_">
		<use xlink:href="#SVGID_1_"  overflow="visible"/>
	</clipPath>
	<polygon clip-path="url(#SVGID_2_)" fill="#FFFFFF" points="250.731,47.648 250.731,47.648 250.732,47.648 250.732,47.648 
		250.731,47.648 	"/>
	<path clip-path="url(#SVGID_2_)" fill="#FFFFFF" d="M898.848,193.529v-9c-2.551,0.875-5.029,0.977-8.467,0.977
		c-5.621,0-9.758-6.293-15.48-14.262c-4.732-6.594-8.928-12.414-14.057-19.59c-6.316-8.842-10.516-16.285-17.594-18.387l0.023-0.229
		c16.977-4.854,27.66-18.85,27.66-34.215c0-22.187-19.697-33.469-44.842-33.469h-62.939v9.589
		c11.207,0.114,14.244,4.769,14.244,14.092v81.021c0,9.414-2.9,13.395-14.244,13.502v9.982h57.742v-9.982
		c-11.355-0.115-15.014-4.287-15.014-13.502v-31.312h3.287c8.926,0,13.094,2.527,16.932,8.422
		c3.439,5.266,8.781,13.41,16.551,25.236c10.457,15.904,15.881,26.227,33.867,26.227
		C888.666,198.629,893.246,196.264,898.848,193.529L898.848,193.529L898.848,193.529z M900,194.311
		c-5.609,3.113-10.758,5.689-23.482,5.689c-18.75,0-24.721-10.867-35.213-27.014c-7.191-11.051-13.482-20.555-16.738-25.432
		c-3.123-4.678-7.172-7.439-14.629-7.439h-2.707v29.941c0,8.17,3.287,12.328,15.012,12.328v12.326h-60.438v-12.326
		c11.275,0,14.246-3.299,14.246-12.328V89.036c0-8.958-2.922-12.913-14.439-12.913V64.182h64.48
		c25.85,0,46.188,11.518,46.188,34.643c0,15.932-11.27,30.336-25.768,34.408v0.23c4.58,1.129,10.684,10.439,15.707,17.613
		c4.898,6.98,8.707,12.219,13.852,19.393c4.625,6.447,9.451,13.672,14.887,13.672c3.242,0,6.914-0.709,9.043-1.375V194.311
		L900,194.311L900,194.311z"/>
</g>
<path fill="#FFFFFF" d="M761.232,155.182h-8.662c-6.77,19.527-12.324,23.879-23.68,23.879h-27.902c-3.445,0-4.432-1.223-4.432-4.105
	v-40.717h7.719c9.475,0,13.057,2.219,14.24,15.859h9.051v-46.193h-8.66c-1.465,13.602-6.125,16.246-14.438,16.246h-7.912V79.252
	h27.74c10.525,0,16.082,7.662,20.016,23.875h8.854l-4.814-37.771h-94.33v9.395c12.189,0.33,14.049,4.168,14.049,13.697v81.609
	c0,9.564-2.107,13.17-14.049,13.502v9.982h101.432L761.232,155.182L761.232,155.182L761.232,155.182z M762.773,153.811l-6.16,40.9
	H652.674v-12.326c12.258-0.277,14.049-3.105,14.049-12.328V88.447c0-9.162-1.697-12.023-14.049-12.522V64.182h97.213l5.203,40.508
	h-11.93c-4.092-17.121-9.803-24.264-18.863-24.264h-26.393v38.354h6.564c7.586,0,12.152-2.805,12.902-16.242h11.732v48.922h-11.736
	c-1.51-13.961-4.246-15.844-13.092-15.844h-6.371v39.148c0,1.91,0.785,2.928,4.049,2.928h26.938c10.631,0,16.15-4.119,22.715-23.881
	H762.773L762.773,153.811L762.773,153.811z"/>
<path fill="#FFFFFF" d="M652.867,102.93l-4.812-37.574H539.879l-4.617,34.246h-0.191l-4.807-34.246h-6.549
	c-0.564,2.277-2.32,3.523-3.461,3.523c-5.055,0-13.641-6.066-27.143-6.066c-25.234,0-48.121,12.475-48.121,37.375
	c0,20.051,12.658,29.154,28.291,35.232c5.865,2.273,10.887,3.961,15.787,5.867c22.969,8.926,25.598,12.332,25.598,21.137
	c0,8.77-6.062,17.025-22.322,17.025c-19.492,0-33.148-4.951-40.996-31.701h-8.09l5.584,45.793h8.086
	c0.959-3.684,2.193-4.701,3.85-4.701c5.969,0,16.652,5.871,35.219,5.871c25.264,0,47.734-17.404,47.734-40.119
	c0-21.855-17.879-31.326-35.605-38.551c-8.879-3.621-17.535-6.666-25.598-9.785c-6.887-2.668-10.973-7.35-10.973-13.504
	c0-7.473,7.928-14.676,21.365-14.676c20.268,0,29.047,8.17,33.877,25.051h8.465h9.051c3.451-16.377,9.699-23.875,22.711-23.875
	h12.318v90.805c0,9.328-1.834,13.17-13.863,13.502v9.982h57.359v-9.982c-12.596-0.332-15.01-4.244-15.01-13.502V79.252h13.475
	c12.393,0,19.889,6.807,23.287,23.678H652.867L652.867,102.93L652.867,102.93z M654.41,104.49h-10.977
	c-3.504-17.642-10.754-23.869-22.131-23.869h-12.127v89.436c0,8.848,1.564,11.992,14.816,12.328v12.326h-59.859v-12.326
	c12.52-0.336,14.055-3.219,14.055-12.328V80.621h-11.164c-12.184,0-18.15,7.121-21.555,23.869h-19.83
	c-5.148-17.411-13.041-25.045-32.719-25.045c-13.02,0-19.828,6.725-19.828,13.307c0,5.184,3.041,9.646,10.01,12.332
	c8.637,3.324,16.715,6.301,25.602,9.785c18.119,7.113,36.375,17.004,36.375,39.723c0,23.611-23.418,41.293-49.082,41.293
	c-18.949,0-29.629-5.67-34.451-5.67c-1.283,0-2.514,0.686-3.463,4.496h-10.588l-5.965-48.334h10.773
	c7.916,27.152,21.08,31.703,40.041,31.703c15.031,0,20.787-7.762,20.787-15.656c0-7.84-2.322-10.994-24.635-19.766
	c-4.566-1.797-9.93-3.773-15.215-5.68c-14.16-5.105-29.828-14.609-29.828-36.791c0-25.91,24.158-38.742,49.658-38.742
	c13.885,0,22.471,5.871,26.559,5.871c1.311,0,2.635-0.851,3.084-3.135h8.848l3.469,27.799h0.191l3.461-27.799h110.488L654.41,104.49
	L654.41,104.49L654.41,104.49z"/>
<g>
	<defs>
		<rect id="SVGID_3_" width="900" height="200"/>
	</defs>
	<clipPath id="SVGID_4_">
		<use xlink:href="#SVGID_3_"  overflow="visible"/>
	</clipPath>
	<path clip-path="url(#SVGID_4_)" fill="#FFFFFF" d="M439.987,193.541v-9.982c-12.028-0.166-14.435-4.244-14.435-13.502V88.643
		c0-9.26,2.406-13.532,14.435-13.698v-9.589H382.63v9.589c12.597,0.501,14.243,4.767,14.243,13.698v81.414
		c0,8.93-1.891,13.336-14.243,13.502v9.982H439.987L439.987,193.541L439.987,193.541z M441.332,194.711h-59.857v-12.326
		c12.678-0.336,14.049-3.219,14.049-12.328V88.643c0-8.881-1.641-11.83-14.24-12.328V64.182h60.049v12.133
		c-12.352,0-14.436,3.369-14.436,12.328v81.414c0,8.961,1.921,11.992,14.436,12.328V194.711L441.332,194.711L441.332,194.711z"/>
	<path clip-path="url(#SVGID_4_)" fill="#FFFFFF" d="M387.633,134.436v-9.783h-57.934v9.783c12.353,0.33,14.242,2.328,14.242,13.701
		v18.98c0,10.166-5.469,16.441-25.982,16.441c-22.154,0-34.645-21.615-34.645-55.58c0-31.061,9.013-53.621,36.184-53.621
		c22.158,0,32.049,10.881,37.918,28.77h8.468l-4.62-38.16h-5.773c-1.398,1.672-3.767,3.129-7.119,3.129
		c-4.463,0-17.873-6.654-28.682-6.654c-44.131,0-66.787,30.567-66.787,69.475c0,7.887,1.234,16.191,3.849,23.676h-8.082
		c-7.009,19.52-12.901,24.469-24.253,24.469h-28.479c-3.285,0-4.05-1.027-4.05-3.518v-41.305h8.104
		c9.889,0,13.441,2.219,14.627,15.859h8.469v-46.193h-8.085c-1.462,13.602-6.499,16.246-14.821,16.246h-8.293V79.252h27.735
		c9.497,0,16.979,7.274,20.788,23.875h8.274l-4.812-37.771h-94.331v9.589c12.188,0,13.861,3.974,13.861,13.503v82.002
		c0,9.674-2.368,12.729-9.239,12.729c-6.722,0-15.24-12.416-22.902-23.104c-4.229-5.9-9.186-12.877-14.805-20.934
		c-4.145-5.943-8.088-10.223-14.631-12.135l0.031-0.172c15.641-5.238,28.053-14.953,28.053-36.621
		c0-26.781-25.863-38.752-56.946-38.752c-27.651,0-48.356,3.811-67.385,7.654L1.729,80.837l7.7,1.567
		c3.16-5.023,9.073-10.844,20.974-12.533v100.186c0,9.414-2.72,13.17-15.399,13.502v9.982h60.63v-9.982
		c-12.352-0.332-15.976-4.287-15.976-13.502v-37.77h0.192h7.141c10.833,0,15.422,5.299,18.653,10.838
		c3.624,6.205,8.964,15.32,17.133,29.277c9.411,16.088,17.009,25.068,35.026,25.068c11.451,0,18.988-1.984,24.637-3.93h88.729
		l5.774-37.184h0.191c9.326,24.617,32.475,39.729,63.709,39.729c13.047,0,21.255-2.438,29.644-5.092
		c7.531-2.377,14.299-5.152,22.325-5.479v-37.379C372.812,136.834,375.283,134.604,387.633,134.436L387.633,134.436L387.633,134.436
		z M388.977,135.615c-12.352,0.494-15.008,1.73-15.008,12.521v38.746c-8.614,0.262-15.066,2.748-23.096,5.287
		c-8.451,2.672-16.814,5.285-30.029,5.285c-30.955,0-53.422-14.379-63.133-36.219h-0.188l-5.2,33.475H162.63
		c-5.648,1.941-12.517,4.123-24.831,4.123c-18.966,0-26.645-9.832-36.178-25.848c-7.968-13.379-13.498-22.881-17.323-29.275
		c-3.291-5.502-7.618-10.049-17.308-10.049h-5.984v36.395c0,8.797,2.773,12.158,15.781,12.328v12.326H13.654v-12.326
		c12.843-0.17,15.398-3.102,15.398-12.137V71.634C19.648,73.113,13.543,78.348,10,83.963l-10-2.15l4.424-23.678
		c18.273-3.835,39.745-8.04,68.54-8.04c30.919,0,58.485,11.839,58.485,40.118c0,23.039-12.998,32.156-25.969,36.621v0.172
		c3.623,0.795,8.298,5.598,12.129,11.152c6.373,9.23,10.76,15.438,14.809,21.133c8.645,12.164,16.171,22.52,21.934,22.52
		c5.109,0,7.703-2.137,7.703-11.361V88.447c0-9.162-1.7-12.135-14.053-12.135V64.182h97.217l5.197,40.508h-11.16
		c-4.014-17.608-11.13-24.068-20.015-24.068h-26.008v38.158h6.946c7.763,0,12.04-2.133,13.479-16.242h10.968v48.73h-11.354
		c-1.168-14.184-4.437-15.652-13.281-15.652h-6.757v39.148c0,2.301,0.562,2.928,3.856,2.928h27.326
		c9.817,0,16.073-4.076,23.289-24.27h7.312c-2.127-7.982-3.463-14.627-3.463-22.506c0-39.53,22.748-70.648,68.135-70.648
		c10.975,0,24.219,6.459,28.682,6.459c3.466,0,5.297-1.398,6.541-3.131h7.507l5.005,40.895h-11.162
		c-6.058-18.386-15.236-28.565-36.764-28.565c-26.127,0-35.031,21.184-35.031,52.054c0,33.822,12.41,54.406,33.492,54.406
		c20.459,0,24.64-6.164,24.64-15.268v-18.98c0-10.881-1.565-12.193-14.242-12.521v-12.137h60.62V135.615L388.977,135.615
		L388.977,135.615z"/>
</g>
<path fill="#FFFFFF" d="M757.381,158.703l-4.811,31.115h-95.084v-2.543c11.287-0.168,14.049-7.242,14.049-17.219V88.447
	c0-10.016-2.027-16.692-14.049-17.025v-2.348h87.594l4.619,30.725h-2.504c-3.131-13.625-10.479-23.874-22.898-23.874H692.9v47.749
	h11.568c9.857,0,16.113-3.777,17.516-16.244h2.117v39.336h-2.311c-1.141-12.455-6.471-16.049-17.516-16.049H692.9v45.207
	c0,5.146,1.588,6.656,6.928,6.656h29.062c14.219,0,19.824-6.225,26.18-23.877H757.381L757.381,158.703L757.381,158.703z"/>
<path fill="#FFFFFF" d="M649.402,99.602h-2.309c-3.004-15.137-10.238-23.677-25.791-23.677h-16.752v94.132
	c0,10.34,2.852,16.691,14.633,17.027v2.734h-50.238v-2.734c11.859-0.836,13.861-6.688,13.861-17.027V75.925h-15.783
	c-15.494,0-22.479,9.253-25.797,23.874h-2.691l4.619-30.725H644.59L649.402,99.602L649.402,99.602L649.402,99.602z"/>
<path fill="#FFFFFF" d="M540.268,154.592c0,20.09-20.18,36.598-44.271,36.598c-19.902,0-31.156-6.26-37.531-6.26
	c-1.443,0-3.316,1.182-4.234,4.889h-1.926l-5.581-38.551h2.118c6.51,24.895,22.385,31.703,43.502,31.703
	c17.48,0,25.789-9.205,25.789-20.547c0-11.57-5.223-15.734-27.908-24.074c-5.268-1.934-10.314-3.758-15.787-5.873
	c-14.396-5.559-25.981-14.592-25.981-32.289c0-21.982,20.192-33.656,44.655-33.656c13.695,0,21.703,5.869,28.1,5.869
	c1.613,0,2.922-1.044,4.043-3.326h1.543l4.809,30.725h-2.309c-4.621-15.782-14.24-25.049-36.377-25.049
	c-14.637,0-24.83,7.924-24.83,18.002c0,8.289,6.031,13.75,13.281,16.633c8.266,3.291,17.418,6.59,25.988,9.98
	C527.85,127.496,540.268,136.607,540.268,154.592L540.268,154.592L540.268,154.592z"/>
<path fill="#FFFFFF" d="M436.33,189.818h-50.237v-2.734c12.188-0.502,14.245-6.646,14.245-17.027V88.643
	c0-10.368-1.973-16.888-14.245-17.221v-2.348h50.237v2.348c-11.695,0.333-14.436,6.448-14.436,17.221v81.414
	c0,10.582,2.74,16.691,14.436,17.027V189.818L436.33,189.818L436.33,189.818z"/>
<path fill="#FFFFFF" d="M384.171,130.717c-11.862,0.67-15.017,4.35-15.017,17.42v34.053c-6.195,0.344-13.857,3.398-19.82,5.283
	c-8.214,2.596-15.93,5.281-28.49,5.281c-40.504,0-64.67-25.906-64.67-61.838c0-37.113,21.443-65.754,63.516-65.754
	c10.999,0,22.312,6.26,29.258,6.26c4.691,0,6.215-1.023,7.697-2.936h1.54l4.234,31.115h-2.308
	c-5.005-15.793-16.339-28.568-40.613-28.568c-30.281,0-39.845,25.447-39.845,56.945c0,35.488,12.588,59.105,38.306,59.105
	c20.824,0,29.448-6.555,29.448-19.967v-18.98c0-13.064-2.573-17.42-14.438-17.42v-2.344h51.201V130.717L384.171,130.717
	L384.171,130.717z"/>
<path fill="#FFFFFF" d="M844.762,101.174c0-17.213-9.596-25.249-25.215-25.249h-17.516v52.253h16.938
	C832.223,128.178,844.762,119.139,844.762,101.174L844.762,101.174L844.762,101.174z M895.578,191.572
	c-4.051,1.973-9.008,3.732-19.633,3.732c-15.312,0-21.805-11.623-30.219-24.467c-7.602-11.617-13.133-19.957-17.504-26.809
	c-4.273-6.691-8.793-8.809-16.746-8.809h-9.445v34.836c0,10.742,4.443,16.826,15.209,17.027v2.734h-50.814v-2.734
	c10.912-0.201,14.242-6.688,14.242-17.027V89.036c0-10.491-3.43-17.402-14.242-17.614v-2.348h59.666
	c24.088,0,40.99,10.279,40.99,29.75c0,15.471-14.273,29.947-31.34,33.463v0.395c9.246,2.295,14.203,9.859,22.336,21.105
	c4.793,6.635,9.227,12.609,13.922,18.816c8.703,11.498,11.76,16.621,17.033,16.621c2.615,0,4.986-0.289,6.545-0.785V191.572
	L895.578,191.572L895.578,191.572z"/>
<path fill="#FFFFFF" d="M102.194,92.56c0-21.577-14.056-30.53-29.23-30.53c-7.69,0-12.882,0.611-16.965,0.986v58.902h18.672
	C90.293,121.918,102.194,112.355,102.194,92.56L102.194,92.56L102.194,92.56z M253.096,158.703l-5.199,31.115h-86.034
	c-6.026,2.566-13.374,4.516-24.253,4.516c-15.344,0-23.46-8.98-31.946-23.496c-7.813-13.363-13.726-23.641-17.731-30.625
	c-3.955-6.895-8.773-11.25-19.402-11.25h-12.53v41.094c0,10.02,3.95,16.525,15.977,17.027v2.734H18.273v-2.734
	c12.027-0.502,15.591-7.051,15.591-17.027V65.175c-16.315,2.508-21.083,6.194-25.979,12.724l-2.113-0.587l2.691-14.675
	c11.186-2.906,37.015-7.458,64.501-7.458c28.793,0,53.096,10.747,53.096,35.034c0,22.656-16.956,32.934-32.508,36.203v0.199
	c9.081,2.16,16.074,8.184,21.366,15.852c4.867,7.055,8.872,12.877,13.458,19.365c8.944,12.67,16.97,24.678,25.979,24.678
	c9.895,0,12.319-6.086,12.319-16.061V88.447c0-10.016-1.673-16.527-13.861-17.025v-2.348h87.597l4.617,30.725h-1.925
	c-3.276-14.367-11.058-23.874-23.48-23.874h-31.39v47.749h11.947c9.859,0,16.694-3.777,18.096-16.244h1.347v39.336h-1.925
	c-1.139-12.455-6.662-16.049-17.707-16.049h-11.758V177.1c0,4.035,1.366,5.48,7.312,5.48h28.871
	c13.515,0,20.502-6.113,26.753-23.877H253.096L253.096,158.703L253.096,158.703z"/>
<path fill="#FFFFFF" d="M839.074,101.174c0-14.479-7.812-20.553-19.727-20.553H807.02v42.662h10.441
	C829.074,123.283,839.074,116.166,839.074,101.174L839.074,101.174L839.074,101.174z M840.398,101.174
	c0,16.303-10.189,23.48-22.947,23.48h-11.758V79.252h13.654C832.057,79.252,840.398,85.467,840.398,101.174L840.398,101.174
	L840.398,101.174z"/>
<path fill="#FFFFFF" d="M97.09,92.56c0-17.628-11.516-25.444-24.161-25.444c-4.711,0-9.041,0.373-11.927,0.592v49.318H74.63
	C86.336,117.025,97.09,108.211,97.09,92.56L97.09,92.56L97.09,92.56z M98.626,92.56c0,17.302-11.078,25.833-23.996,25.833H59.657
	V66.339c3.469-0.399,8.149-0.79,13.271-0.79C86.146,65.549,98.626,73.268,98.626,92.56L98.626,92.56L98.626,92.56z"/>
<path fill="#FFFFFF" d="M325.462,1.397V2.32l-0.08,0.02c3.556,0.01,5.917,2.723,5.922,7.492l-0.076,22.578l-0.323-0.029
	L306.092,1.475l-13.359-0.077h-0.268V2.34c3.903,0.16,5.641,1.924,7.108,4.428v31.695c-0.005,2.994-1.015,5.285-2.706,6.51
	c-0.535,0.435-1.174,0.738-1.881,0.855c-0.197,0.043-0.419,0.035-0.627,0.059c-0.234,0.029-0.459,0.074-0.709,0.07l0.225,0.94h0.109
	H308.3l0.079-0.94c-3.535-0.005-5.914-2.891-5.922-7.494l0.082-27.941l0.315,0.027l29.07,36.268l2.265,0.081V9.832
	c0.008-4.734,2.262-7.449,5.843-7.49V1.475L325.462,1.397L325.462,1.397z"/>
<path fill="#FFFFFF" d="M653.617,1.4l-0.969,10.314l-0.121,1.363l1.191,0.068c0.961-5.714,3.424-9.023,9.217-9.014l6.682,0.076
	v35.276c-0.008,3.708-1.822,6.461-5.842,6.386l-0.076,1.021h19.969l0.082-0.94c-4.092-0.006-5.906-2.729-5.914-6.467l0.082-35.353
	h6.848c5.652-0.008,8.115,3.756,9.137,9.199h1.186l-0.674-11.857L653.617,1.4L653.617,1.4z"/>
<polygon fill="#FFFFFF" points="652.521,13.154 652.521,13.158 652.566,13.158 652.521,13.154 "/>
<path fill="#FFFFFF" d="M599.004,45.954c-4.023-0.005-6.168-2.851-6.172-6.723V8.811c0.004-3.917,2.109-6.461,6.094-6.386
	l0.078-0.95l-19.832-0.077h-0.396l-0.078,0.942c4.094,0.01,5.658,2.58,5.66,6.471l-0.018,30.467
	c-2.904,3.654-7.533,6.164-11.48,6.164c-8.246-0.01-9.969-4.126-9.979-12.597V8.811c0.002-3.745,1.828-6.461,5.838-6.386l0.084-0.95
	l-19.584-0.077h-0.391L548.75,2.34c4.129,0.01,5.906,2.516,5.91,6.471v23.52c0.016,11.303,5.367,15.5,15.91,15.512
	c6.625,0,10.912-2.939,13.91-5.857l0.133-0.133l-0.074,5.046h14.395L599.004,45.954L599.004,45.954z"/>
<path fill="#FFFFFF" d="M495.75,34.518c-3.439,5.609-8.516,10.16-15.742,10.16c-9.229-0.004-15.799-9.374-15.816-22.317
	c0.018-12.087,5.758-19.745,15.055-19.761c7.047-0.006,13.727,3.865,15.484,12.266l1.367,0.081h0.082l-1.195-13.983l-1.199-0.043
	c-0.566,1.148-1.797,1.324-2.605,1.324c-2.76,0-5.414-1.538-12.441-1.531c-13.787,0.002-23.523,9.198-23.527,23.949
	c0.004,13.652,9.545,23.178,22.768,23.18c9.789,0,15.1-5.272,18.943-11.677L495.75,34.518L495.75,34.518z"/>
<polygon fill="#FFFFFF" points="496.25,14.946 496.258,14.946 496.133,13.576 496.25,14.946 "/>
<polygon fill="#0E1131" points="404.321,21.513 404.321,21.18 404.321,21.513 404.321,21.513 "/>
<path fill="#FFFFFF" d="M428.031,35.202l-1.354-0.292c-2.392,6.658-4.69,9.006-9.723,8.998h-10.203
	c-2.835-0.002-3.129-0.619-3.132-1.889c0-0.23,0.006-0.477,0.006-0.748l0.079-16.184h6.345c4.313-0.016,6.053,1,6.343,5.621
	l1.197,0.084l0.077-15.001l-1.194-0.071c-0.466,4.7-2.551,5.968-6.423,5.952l-6.424-0.079l0.079-17.205h13.202
	c4.8,0,6.756,3.828,7.868,8.945l1.084,0.08h0.104l-1.188-11.939l-35.457-0.077l-0.08,0.927v0.018
	c4.17,0.008,5.908,2.688,5.912,6.469v30.678c-0.004,3.771-1.715,6.464-5.832,6.387l-0.08,1.022l0,0h36.777L428.031,35.202
	L428.031,35.202z"/>
<polygon fill="#FFFFFF" points="426.033,13.414 426.041,13.414 425.92,12.26 426.033,13.414 "/>
<path fill="#FFFFFF" d="M371.244,23.379h-0.361l-0.079,1.709c4.069,0.008,5.148,1.119,5.151,5.963v7.412
	c-0.01,5.109-3.943,7.486-11.748,7.491c-9.432-0.005-14.279-9.794-14.294-22.575c0.015-11.731,4.293-21.018,15.56-21.039
	c9.112-0.002,12.84,5.459,14.723,12.78l1.125,0.079h0.064l-0.934-13.725l-0.731-0.012c-1.375,0.74-2.962,0.777-3.274,0.777
	c-0.033,0-0.047,0.007-0.057,0.007c-1.746-0.052-6.662-2.048-10.916-2.048c-15.884,0.002-24.79,10.82-24.795,24.719
	c0.005,13.462,9.506,22.92,24.795,22.924c9.48,0,14.441-3.707,18.457-3.753V31.051c0.003-4.958,1.338-5.943,5.328-5.963l0.076-1.617
	v-0.015L371.244,23.379L371.244,23.379z"/>
<g>
	<defs>
		<rect id="SVGID_5_" width="900" height="200"/>
	</defs>
	<clipPath id="SVGID_6_">
		<use xlink:href="#SVGID_5_"  overflow="visible"/>
	</clipPath>
	<polygon clip-path="url(#SVGID_6_)" fill="#FFFFFF" points="381.463,15.199 381.466,15.199 381.41,14.438 381.463,15.199 	"/>
	<path clip-path="url(#SVGID_6_)" fill="#FFFFFF" d="M524.592,45.954c-9.113-0.002-14.789-9.208-14.801-22.062
		c0.012-13.021,5.572-21.803,15.053-21.807c9.23,0.004,14.787,8.971,14.801,22.32C539.631,37.313,533.949,45.954,524.592,45.954
		L524.592,45.954z M525.104-0.057c-14.223,0.002-24.295,9.76-24.301,23.695c0,13.807,10.176,24.201,24.041,24.203
		c13.77-0.002,23.781-10.338,23.787-24.203C548.625,10.073,538.738-0.055,525.104-0.057L525.104-0.057z"/>
</g>
<rect x="220.25" y="22.609" fill="#0E1131" width="0" height="0.178"/>
<polygon fill="#0E1131" points="220.327,26.191 220.35,26.191 220.327,26.191 220.327,26.191 "/>
<path fill="#FFFFFF" d="M181.289,2.086c9.229,0.004,14.531,8.964,14.549,22.32c-0.018,12.892-5.187,21.548-14.549,21.548
	c-9.119-0.002-14.785-9.208-14.799-22.062C166.504,10.877,171.809,2.09,181.289,2.086L181.289,2.086z M181.289,48.1
	c13.765-0.004,23.778-10.596,23.781-24.461c-0.003-13.565-9.892-23.438-23.527-23.439c-14.215,0.002-24.288,9.492-24.288,23.439
	C157.255,37.445,167.418,48.096,181.289,48.1L181.289,48.1z"/>
<path fill="#FFFFFF" d="M223.549,22.947l-3.377-0.08l0.078-18.479h3.807c5.645,0.008,8.699,3.426,8.706,9.789
	C232.752,20.201,229.153,22.935,223.549,22.947L223.549,22.947z M250.198,45.816c-1.971,0-4.621-2.881-4.739-3.01
	c-1.176-1.557-2.551-3.718-4.213-6.605l-2.79-4.855c-1.745-3.031-3.989-4.988-6.358-6.432l0.057-0.332
	c4.796-1.352,9.086-6.211,9.079-11.17c0-7.361-5.791-11.676-14.896-11.682l-19.82-0.078h-0.405l-0.08,0.926v0.02
	c4.104,0.006,5.911,2.747,5.919,6.465v30.426c-0.008,3.765-1.77,6.464-5.839,6.389l-0.077,1.021h19.973l0.08-0.932v-0.009
	c-4.094-0.005-5.913-2.506-5.916-6.469l0.078-13.382h1.265c2.286,0,4.161,0.997,5.903,3.361c1.202,1.628,3.664,5.089,6.604,10.233
	c2.957,5.184,6.407,7.886,10.596,7.886c2.474,0,4.598-0.513,5.508-0.751l0.073-0.879h-0.013L250.198,45.816L250.198,45.816z"/>
<path fill="#FFFFFF" d="M635.248,1.397V2.32l-0.076,0.02c3.555,0.01,5.914,2.723,5.922,7.492l-0.078,22.578l-0.322-0.029
	L615.877,1.475L602.52,1.397h-0.266V2.34c3.9,0.16,5.637,1.924,7.109,4.428v31.695c-0.01,2.994-1.018,5.285-2.707,6.51
	c-0.539,0.435-1.176,0.738-1.883,0.855c-0.199,0.043-0.418,0.035-0.629,0.059c-0.186,0.021-0.373,0.047-0.566,0.055l-0.078,0.956
	h7.629h6.957l0.078-0.94c-3.4-0.005-5.711-2.697-5.885-7.002c-0.006-0.167-0.033-0.318-0.033-0.492l0.078-27.941l0.316,0.027
	l29.074,36.268l2.262,0.081V9.832c0.008-4.734,2.262-7.449,5.844-7.49V1.475L635.248,1.397L635.248,1.397z"/>
<g>
	<defs>
		<rect id="SVGID_7_" width="900" height="200"/>
	</defs>
	<clipPath id="SVGID_8_">
		<use xlink:href="#SVGID_7_"  overflow="visible"/>
	</clipPath>
	<path clip-path="url(#SVGID_8_)" fill="#FFFFFF" d="M727.303,1.397l-0.078,0.944c2.768,0.004,4.389,1.379,4.396,3.404
		c-0.012,1.025-1.291,3.054-1.789,3.875l-7.684,12.306l-0.578-0.04l-7.615-13.805c-0.283-0.525-1.021-2.189-1.025-2.851
		c0.004-1.608,0.674-2.886,3.379-2.89l0.68,0.078l0.082-0.945l-19.469-0.077l-0.072,0.944c4.605,0.314,4.645,1.344,7.678,6.426
		l10.416,17.424v12.785c-0.006,3.4-1.365,6.176-4.326,6.822v1.094h17.141v-1.071c-3.195-0.597-4.84-3.356-4.844-6.845l0.014-13.338
		l12.434-18.663c0.906-1.357,2.459-4.323,6.34-4.626l0.074-0.875L727.303,1.397L727.303,1.397z"/>
	<path clip-path="url(#SVGID_8_)" fill="#FFFFFF" d="M261.25,29.341l7.22-19.839l0.333,0.051l7.105,19.684l0.04,0.104H261.25
		L261.25,29.341z M277.438,45.875l-0.079,1.022h31.02H295.33l0.042-0.94c-0.321-0.023-0.631-0.066-0.928-0.115
		c-0.814-0.148-1.526-0.389-2.124-0.674c-0.086-0.044-0.167-0.086-0.248-0.131c-0.715-0.369-1.254-0.79-1.574-1.156
		c-0.979-1.105-1.539-3.299-2.047-4.625L273.496,0.167l-0.103-0.274c-2.5,1.681-5.505,2.77-8.395,3.553l-0.058,0.688
		c0.991,0.243,1.271,0.846,1.832,1.889L254.08,40.533c-1.189,3.26-2.169,5.357-5.582,5.342l-0.077,0.925v0.098h11.845l0.078-1.022
		c-3.189-0.264-4.131-1.303-4.131-2.3c0.006-0.61,0.58-1.804,1.021-3.091l2.864-8.234l16.826,0.051l3.3,8.693
		c0.281,0.742,0.764,1.512,0.77,2.326C280.988,44.295,280.429,45.954,277.438,45.875"/>
</g>
</svg>
