<?xml version="1.0" encoding="utf-8"?>
<!-- Generator: Adobe Illustrator 16.0.0, SVG Export Plug-In . SVG Version: 6.00 Build 0)  -->
<!DOCTYPE svg PUBLIC "-//W3C//DTD SVG 1.1//EN" "http://www.w3.org/Graphics/SVG/1.1/DTD/svg11.dtd">
<svg version="1.1" id="Layer_1" xmlns="http://www.w3.org/2000/svg" xmlns:xlink="http://www.w3.org/1999/xlink" x="0px" y="0px"
	 width="900px" height="200px" viewBox="0 0 900 200" enable-background="new 0 0 900 200" xml:space="preserve">
<polygon fill="#FFFFFF" points="606.135,47.396 606.135,47.396 606.139,47.396 606.139,47.396 606.135,47.396 "/>
<rect x="497.017" y="36.904" fill="#0E1131" width="0" height="0.001"/>
<polygon fill="#0E1131" points="428.124,35.887 428.124,35.887 428.121,35.887 428.121,35.887 428.124,35.887 "/>
<polygon fill="#0E1131" points="416.439,31.536 416.439,31.315 416.438,31.536 416.439,31.536 "/>
<g>
	<defs>
		<rect id="SVGID_1_" width="900" height="200"/>
	</defs>
	<clipPath id="SVGID_2_">
		<use xlink:href="#SVGID_1_"  overflow="visible"/>
	</clipPath>
	<polygon clip-path="url(#SVGID_2_)" fill="#FFFFFF" points="250.731,47.648 250.731,47.648 250.732,47.648 250.732,47.648 
		250.731,47.648 	"/>
	<path clip-path="url(#SVGID_2_)" fill="#333333" d="M898.848,193.529v-9.002c-2.55,0.876-5.029,0.979-8.467,0.979
		c-5.621,0-9.758-6.293-15.48-14.262c-4.733-6.595-8.929-12.414-14.056-19.591c-6.317-8.841-10.518-16.285-17.594-18.386
		l0.021-0.229c16.977-4.853,27.66-18.852,27.66-34.216c0-22.186-19.696-33.468-44.841-33.468h-62.938v9.589
		c11.207,0.114,14.243,4.768,14.243,14.091v81.02c0,9.413-2.899,13.395-14.243,13.502v9.981h57.74v-9.981
		c-11.354-0.113-15.013-4.286-15.013-13.502v-31.312h3.287c8.927,0,13.093,2.526,16.932,8.42
		c3.439,5.267,8.781,13.411,16.551,25.237c10.457,15.905,15.88,26.228,33.867,26.228
		C888.666,198.629,893.246,196.264,898.848,193.529L898.848,193.529L898.848,193.529z M900,194.311
		c-5.609,3.114-10.758,5.689-23.482,5.689c-18.75,0-24.72-10.867-35.214-27.014c-7.19-11.05-13.481-20.556-16.738-25.433
		c-3.122-4.678-7.171-7.439-14.629-7.439h-2.706v29.941c0,8.171,3.287,12.328,15.012,12.328v12.327h-60.438v-12.327
		c11.275,0,14.246-3.299,14.246-12.328v-81.02c0-8.958-2.921-12.914-14.439-12.914V64.181h64.48
		c25.85,0,46.188,11.518,46.188,34.642c0,15.934-11.27,30.336-25.767,34.407v0.231c4.579,1.129,10.684,10.439,15.706,17.612
		c4.898,6.982,8.708,12.22,13.852,19.395c4.625,6.447,9.451,13.671,14.886,13.671c3.243,0,6.915-0.708,9.044-1.375V194.311
		L900,194.311L900,194.311z"/>
</g>
<path fill="#333333" d="M761.232,155.181h-8.662c-6.771,19.527-12.324,23.879-23.68,23.879h-27.903
	c-3.444,0-4.431-1.221-4.431-4.105v-40.717h7.719c9.476,0,13.057,2.219,14.24,15.859h9.052v-46.192h-8.662
	c-1.465,13.601-6.124,16.247-14.438,16.247h-7.911v-40.9h27.739c10.526,0,16.083,7.663,20.017,23.874h8.854l-4.814-37.77h-94.33
	v9.394c12.189,0.331,14.049,4.169,14.049,13.698v81.608c0,9.565-2.107,13.17-14.049,13.502v9.981h101.433L761.232,155.181
	L761.232,155.181L761.232,155.181z M762.773,153.809l-6.16,40.902H652.674v-12.325c12.258-0.279,14.05-3.106,14.05-12.33V88.447
	c0-9.163-1.698-12.024-14.05-12.522V64.181h97.214l5.202,40.509h-11.931c-4.091-17.122-9.802-24.265-18.863-24.265h-26.392v38.354
	h6.563c7.587,0,12.152-2.806,12.903-16.241h11.732v48.921h-11.735c-1.511-13.961-4.248-15.845-13.093-15.845h-6.371v39.148
	c0,1.911,0.785,2.928,4.049,2.928h26.938c10.631,0,16.15-4.119,22.716-23.882H762.773L762.773,153.809L762.773,153.809z"/>
<path fill="#333333" d="M652.866,102.929l-4.812-37.574H539.879l-4.616,34.246h-0.193l-4.806-34.246h-6.548
	c-0.565,2.277-2.32,3.523-3.463,3.523c-5.054,0-13.641-6.066-27.142-6.066c-25.234,0-48.121,12.475-48.121,37.375
	c0,20.051,12.658,29.154,28.291,35.232c5.865,2.274,10.888,3.961,15.787,5.867c22.969,8.928,25.598,12.331,25.598,21.138
	c0,8.768-6.062,17.024-22.322,17.024c-19.493,0-33.148-4.951-40.997-31.702h-8.089l5.584,45.793h8.086
	c0.959-3.681,2.192-4.699,3.85-4.699c5.97,0,16.652,5.871,35.22,5.871c25.263,0,47.733-17.406,47.733-40.119
	c0-21.856-17.879-31.327-35.606-38.552c-8.878-3.62-17.533-6.665-25.597-9.784c-6.887-2.668-10.973-7.351-10.973-13.505
	c0-7.472,7.928-14.675,21.365-14.675c20.268,0,29.047,8.17,33.876,25.049h8.467h9.049c3.452-16.375,9.701-23.874,22.712-23.874
	h12.318v90.804c0,9.328-1.833,13.17-13.863,13.502v9.981h57.359v-9.981c-12.596-0.332-15.01-4.245-15.01-13.502V79.251h13.475
	c12.394,0,19.889,6.806,23.287,23.677H652.866L652.866,102.929L652.866,102.929z M654.409,104.49h-10.976
	c-3.504-17.642-10.753-23.869-22.131-23.869h-12.128v89.435c0,8.847,1.565,11.993,14.817,12.328v12.327h-59.859v-12.327
	c12.519-0.335,14.055-3.219,14.055-12.328V80.621h-11.164c-12.185,0-18.15,7.121-21.556,23.869h-19.829
	c-5.148-17.412-13.041-25.045-32.719-25.045c-13.02,0-19.828,6.724-19.828,13.306c0,5.185,3.042,9.646,10.009,12.331
	c8.637,3.325,16.716,6.303,25.603,9.786c18.119,7.115,36.375,17.003,36.375,39.724c0,23.611-23.417,41.293-49.081,41.293
	c-18.95,0-29.631-5.67-34.452-5.67c-1.282,0-2.514,0.684-3.464,4.496h-10.587l-5.965-48.333h10.773
	c7.917,27.15,21.08,31.701,40.041,31.701c15.031,0,20.787-7.763,20.787-15.655c0-7.84-2.321-10.994-24.636-19.767
	c-4.565-1.796-9.93-3.773-15.214-5.68c-14.161-5.104-29.828-14.608-29.828-36.791c0-25.909,24.158-38.742,49.658-38.742
	c13.886,0,22.47,5.872,26.559,5.872c1.311,0,2.636-0.851,3.083-3.135h8.85l3.467,27.798h0.193l3.46-27.798H649.21L654.409,104.49
	L654.409,104.49L654.409,104.49z"/>
<g>
	<defs>
		<rect id="SVGID_3_" width="900" height="200"/>
	</defs>
	<clipPath id="SVGID_4_">
		<use xlink:href="#SVGID_3_"  overflow="visible"/>
	</clipPath>
	<path clip-path="url(#SVGID_4_)" fill="#333333" d="M439.987,193.539v-9.981c-12.028-0.166-14.435-4.245-14.435-13.502V88.642
		c0-9.26,2.406-13.532,14.435-13.698v-9.589H382.63v9.589c12.597,0.5,14.243,4.767,14.243,13.698v81.414
		c0,8.93-1.891,13.336-14.243,13.502v9.981H439.987L439.987,193.539L439.987,193.539z M441.332,194.711h-59.857v-12.327
		c12.678-0.335,14.049-3.219,14.049-12.328V88.642c0-8.881-1.641-11.83-14.24-12.327V64.181h60.049v12.134
		c-12.352,0-14.436,3.368-14.436,12.327v81.414c0,8.962,1.921,11.993,14.436,12.328V194.711L441.332,194.711L441.332,194.711z"/>
	<path clip-path="url(#SVGID_4_)" fill="#333333" d="M387.633,134.436v-9.784H329.7v9.784c12.352,0.329,14.241,2.325,14.241,13.7
		v18.98c0,10.168-5.469,16.441-25.981,16.441c-22.154,0-34.645-21.614-34.645-55.58c0-31.059,9.012-53.62,36.183-53.62
		c22.158,0,32.049,10.88,37.918,28.768h8.467l-4.62-38.159h-5.773c-1.399,1.672-3.767,3.129-7.119,3.129
		c-4.462,0-17.873-6.654-28.681-6.654c-44.131,0-66.788,30.568-66.788,69.474c0,7.888,1.234,16.193,3.849,23.677h-8.082
		c-7.009,19.52-12.902,24.468-24.253,24.468h-28.479c-3.285,0-4.049-1.027-4.049-3.517v-41.306h8.104
		c9.888,0,13.441,2.219,14.626,15.859h8.469v-46.192h-8.085c-1.462,13.601-6.499,16.247-14.821,16.247h-8.293v-40.9h27.735
		c9.497,0,16.98,7.275,20.788,23.874h8.274l-4.812-37.77h-94.331v9.589c12.189,0,13.861,3.974,13.861,13.503v82.001
		c0,9.676-2.369,12.729-9.239,12.729c-6.722,0-15.241-12.416-22.902-23.104c-4.229-5.9-9.187-12.878-14.805-20.935
		c-4.145-5.944-8.088-10.222-14.631-12.136l0.032-0.172c15.64-5.236,28.052-14.952,28.052-36.62
		c0-26.78-25.862-38.752-56.946-38.752c-27.651,0-48.357,3.811-67.385,7.655L1.728,80.836l7.701,1.567
		c3.16-5.023,9.073-10.842,20.974-12.533v100.186c0,9.413-2.72,13.17-15.399,13.502v9.981h60.629v-9.981
		c-12.351-0.332-15.975-4.288-15.975-13.502v-37.769h0.192h7.14c10.833,0,15.422,5.299,18.654,10.838
		c3.624,6.204,8.963,15.32,17.133,29.276c9.412,16.087,17.009,25.068,35.026,25.068c11.451,0,18.989-1.982,24.637-3.931h88.729
		l5.774-37.183h0.191c9.326,24.618,32.475,39.729,63.709,39.729c13.047,0,21.255-2.438,29.644-5.092
		c7.531-2.377,14.299-5.153,22.325-5.479v-37.379C372.812,136.834,375.283,134.604,387.633,134.436L387.633,134.436L387.633,134.436
		z M388.977,135.614c-12.352,0.494-15.008,1.73-15.008,12.521v38.747c-8.614,0.261-15.066,2.747-23.095,5.286
		c-8.452,2.674-16.815,5.285-30.03,5.285c-30.956,0-53.422-14.379-63.133-36.219h-0.188l-5.2,33.476H162.63
		c-5.648,1.941-12.517,4.124-24.832,4.124c-18.965,0-26.644-9.835-36.177-25.849c-7.968-13.38-13.499-22.882-17.324-29.276
		c-3.291-5.503-7.619-10.048-17.308-10.048h-5.984v36.394c0,8.798,2.773,12.159,15.781,12.328v12.327H13.655v-12.327
		c12.842-0.169,15.398-3.1,15.398-12.135V71.633C19.648,73.113,13.543,78.347,10,83.962l-10-2.15l4.424-23.677
		c18.274-3.835,39.745-8.04,68.54-8.04c30.919,0,58.486,11.838,58.486,40.117c0,23.039-12.999,32.157-25.969,36.62v0.172
		c3.623,0.797,8.297,5.601,12.129,11.153c6.372,9.23,10.759,15.439,14.808,21.134c8.645,12.162,16.171,22.518,21.934,22.518
		c5.11,0,7.704-2.136,7.704-11.36V88.447c0-9.163-1.701-12.134-14.053-12.134V64.181h97.216l5.197,40.509h-11.16
		c-4.014-17.61-11.13-24.069-20.015-24.069h-26.008v38.158h6.947c7.762,0,12.04-2.134,13.478-16.241h10.968v48.729h-11.355
		c-1.167-14.183-4.436-15.652-13.28-15.652h-6.757v39.148c0,2.301,0.561,2.928,3.856,2.928h27.326
		c9.817,0,16.073-4.076,23.289-24.27h7.312c-2.126-7.98-3.462-14.628-3.462-22.506c0-39.529,22.747-70.647,68.135-70.647
		c10.974,0,24.219,6.458,28.681,6.458c3.466,0,5.296-1.398,6.541-3.131h7.507l5.005,40.896h-11.162
		c-6.058-18.386-15.236-28.565-36.764-28.565c-26.127,0-35.031,21.184-35.031,52.053c0,33.822,12.41,54.406,33.492,54.406
		c20.459,0,24.639-6.163,24.639-15.268v-18.98c0-10.88-1.565-12.191-14.242-12.521v-12.137h60.62V135.614L388.977,135.614
		L388.977,135.614z"/>
</g>
<path fill="#333333" d="M757.381,158.703l-4.811,31.114h-95.084v-2.541c11.287-0.168,14.049-7.242,14.049-17.221V88.447
	c0-10.016-2.027-16.692-14.049-17.026v-2.347h87.594l4.618,30.724h-2.502c-3.132-13.625-10.479-23.873-22.9-23.873H692.9v47.748
	h11.567c9.858,0,16.113-3.777,17.516-16.244h2.118v39.337h-2.311c-1.141-12.455-6.47-16.05-17.516-16.05H692.9v45.207
	c0,5.146,1.587,6.656,6.928,6.656h29.062c14.219,0,19.825-6.224,26.179-23.876H757.381L757.381,158.703L757.381,158.703z"/>
<path fill="#333333" d="M649.403,99.601h-2.31c-3.003-15.136-10.238-23.676-25.791-23.676h-16.752v94.131
	c0,10.339,2.853,16.69,14.634,17.027v2.734h-50.24v-2.734c11.861-0.836,13.862-6.688,13.862-17.027V75.925h-15.783
	c-15.494,0-22.479,9.252-25.797,23.873h-2.691l4.619-30.724H644.59L649.403,99.601L649.403,99.601L649.403,99.601z"/>
<path fill="#333333" d="M540.268,154.592c0,20.089-20.18,36.599-44.271,36.599c-19.902,0-31.157-6.261-37.531-6.261
	c-1.444,0-3.317,1.181-4.236,4.888h-1.924l-5.582-38.551h2.118c6.511,24.896,22.384,31.703,43.502,31.703
	c17.48,0,25.79-9.205,25.79-20.546c0-11.571-5.223-15.735-27.909-24.075c-5.269-1.933-10.314-3.758-15.787-5.872
	c-14.396-5.559-25.981-14.592-25.981-32.29c0-21.982,20.192-33.656,44.655-33.656c13.695,0,21.703,5.87,28.099,5.87
	c1.614,0,2.923-1.044,4.043-3.327h1.543l4.811,30.724h-2.311c-4.619-15.782-14.239-25.049-36.376-25.049
	c-14.637,0-24.829,7.924-24.829,18.002c0,8.289,6.029,13.75,13.28,16.634c8.266,3.29,17.419,6.589,25.987,9.98
	C527.85,127.496,540.268,136.606,540.268,154.592L540.268,154.592L540.268,154.592z"/>
<path fill="#333333" d="M436.33,189.817h-50.237v-2.734c12.188-0.501,14.245-6.646,14.245-17.027V88.642
	c0-10.368-1.973-16.887-14.245-17.221v-2.347h50.237v2.347c-11.695,0.334-14.436,6.449-14.436,17.221v81.414
	c0,10.582,2.74,16.69,14.436,17.027V189.817L436.33,189.817L436.33,189.817z"/>
<path fill="#333333" d="M384.171,130.716c-11.862,0.67-15.016,4.35-15.016,17.42v34.054c-6.196,0.345-13.857,3.398-19.821,5.282
	c-8.213,2.597-15.929,5.282-28.49,5.282c-40.504,0-64.67-25.906-64.67-61.839c0-37.113,21.443-65.753,63.516-65.753
	c10.999,0,22.312,6.259,29.257,6.259c4.691,0,6.215-1.023,7.698-2.935h1.54l4.234,31.114h-2.308
	c-5.005-15.793-16.339-28.568-40.613-28.568c-30.282,0-39.845,25.449-39.845,56.945c0,35.489,12.588,59.105,38.306,59.105
	c20.824,0,29.448-6.555,29.448-19.967v-18.98c0-13.063-2.573-17.42-14.438-17.42v-2.344h51.201V130.716L384.171,130.716
	L384.171,130.716z"/>
<path fill="#333333" d="M844.762,101.173c0-17.213-9.596-25.248-25.216-25.248h-17.514v52.254h16.938
	C832.222,128.179,844.762,119.139,844.762,101.173L844.762,101.173L844.762,101.173z M895.577,191.571
	c-4.049,1.975-9.007,3.733-19.631,3.733c-15.313,0-21.807-11.623-30.22-24.467c-7.603-11.616-13.134-19.958-17.505-26.809
	c-4.271-6.693-8.793-8.809-16.746-8.809h-9.443v34.835c0,10.743,4.442,16.826,15.208,17.027v2.734h-50.815v-2.734
	c10.913-0.2,14.243-6.688,14.243-17.027v-81.02c0-10.491-3.43-17.402-14.243-17.615v-2.347h59.667
	c24.088,0,40.989,10.28,40.989,29.75c0,15.47-14.272,29.946-31.339,33.464v0.394c9.247,2.296,14.203,9.859,22.335,21.107
	c4.795,6.633,9.228,12.607,13.924,18.814c8.701,11.498,11.759,16.619,17.032,16.619c2.615,0,4.985-0.286,6.544-0.782V191.571
	L895.577,191.571L895.577,191.571z"/>
<path fill="#333333" d="M102.194,92.56c0-21.578-14.056-30.53-29.23-30.53c-7.691,0-12.881,0.611-16.965,0.985v58.902h18.672
	C90.292,121.917,102.194,112.355,102.194,92.56L102.194,92.56L102.194,92.56z M253.095,158.703l-5.199,31.114h-86.034
	c-6.026,2.565-13.374,4.515-24.252,4.515c-15.344,0-23.46-8.98-31.947-23.494c-7.813-13.365-13.726-23.642-17.731-30.626
	c-3.955-6.894-8.773-11.25-19.402-11.25h-12.53v41.094c0,10.021,3.95,16.526,15.977,17.027v2.734H18.274v-2.734
	c12.026-0.501,15.59-7.052,15.59-17.027V65.174c-16.315,2.508-21.083,6.194-25.979,12.724l-2.114-0.587l2.692-14.675
	c11.185-2.906,37.015-7.458,64.501-7.458c28.793,0,53.096,10.748,53.096,35.033c0,22.657-16.956,32.934-32.508,36.204v0.199
	c9.081,2.158,16.074,8.184,21.366,15.853c4.868,7.053,8.873,12.875,13.458,19.364c8.944,12.669,16.97,24.677,25.979,24.677
	c9.895,0,12.32-6.084,12.32-16.061V88.447c0-10.016-1.672-16.527-13.861-17.026v-2.347h87.597l4.617,30.724h-1.925
	c-3.276-14.367-11.058-23.873-23.48-23.873h-31.39v47.748h11.948c9.858,0,16.694-3.777,18.095-16.244h1.347v39.337h-1.925
	c-1.139-12.455-6.662-16.05-17.707-16.05h-11.758v46.383c0,4.037,1.366,5.48,7.312,5.48h28.871c13.515,0,20.501-6.111,26.753-23.876
	H253.095L253.095,158.703L253.095,158.703z"/>
<path fill="#333333" d="M839.073,101.173c0-14.479-7.812-20.552-19.727-20.552H807.02v42.662h10.44
	C829.073,123.283,839.073,116.164,839.073,101.173L839.073,101.173L839.073,101.173z M840.398,101.173
	c0,16.304-10.189,23.481-22.947,23.481h-11.758V79.251h13.653C832.057,79.251,840.398,85.466,840.398,101.173L840.398,101.173
	L840.398,101.173z"/>
<path fill="#333333" d="M97.09,92.56c0-17.628-11.516-25.445-24.161-25.445c-4.711,0-9.041,0.374-11.927,0.592v49.32H74.63
	C86.335,117.026,97.09,108.211,97.09,92.56L97.09,92.56L97.09,92.56z M98.626,92.56c0,17.301-11.078,25.834-23.996,25.834H59.657
	V66.338c3.469-0.399,8.15-0.79,13.271-0.79C86.146,65.549,98.626,73.267,98.626,92.56L98.626,92.56L98.626,92.56z"/>
<path fill="#333333" d="M325.462,1.397v0.924l-0.08,0.02c3.556,0.009,5.917,2.722,5.922,7.491l-0.076,22.579l-0.323-0.03
	L306.091,1.475l-13.359-0.078h-0.268V2.34c3.903,0.16,5.64,1.924,7.108,4.427v31.695c-0.005,2.994-1.015,5.286-2.706,6.51
	c-0.535,0.434-1.174,0.738-1.881,0.855c-0.197,0.043-0.418,0.036-0.626,0.059c-0.235,0.029-0.459,0.074-0.71,0.07l0.225,0.94h0.11
	H308.3l0.079-0.94c-3.535-0.005-5.914-2.891-5.922-7.495l0.083-27.941l0.315,0.028l29.07,36.268l2.265,0.08V9.832
	c0.007-4.735,2.261-7.449,5.842-7.49V1.475L325.462,1.397L325.462,1.397z"/>
<path fill="#333333" d="M653.618,1.4l-0.971,10.315l-0.119,1.362l1.19,0.069c0.961-5.714,3.424-9.024,9.217-9.014l6.682,0.077
	v35.276c-0.008,3.708-1.822,6.461-5.842,6.386l-0.076,1.021h19.968l0.082-0.94c-4.091-0.006-5.905-2.73-5.913-6.467l0.082-35.353
	h6.847c5.654-0.006,8.116,3.756,9.138,9.199h1.186l-0.675-11.856L653.618,1.4L653.618,1.4z"/>
<polygon fill="#333333" points="652.521,13.154 652.521,13.158 652.567,13.158 652.521,13.154 "/>
<path fill="#333333" d="M599.003,45.954c-4.022-0.005-6.166-2.851-6.172-6.723V8.81c0.006-3.917,2.111-6.46,6.096-6.386l0.076-0.95
	l-19.831-0.078h-0.396l-0.078,0.943c4.094,0.009,5.658,2.58,5.66,6.47l-0.017,30.467c-2.905,3.655-7.534,6.165-11.481,6.165
	c-8.245-0.01-9.969-4.126-9.979-12.597V8.81c0.002-3.745,1.828-6.46,5.839-6.386l0.083-0.95l-19.585-0.078h-0.39L548.75,2.34
	c4.129,0.009,5.907,2.514,5.91,6.47v23.52c0.017,11.303,5.367,15.5,15.911,15.512c6.624,0,10.911-2.94,13.909-5.859l0.134-0.133
	l-0.075,5.046h14.395L599.003,45.954L599.003,45.954z"/>
<path fill="#333333" d="M495.751,34.517c-3.44,5.61-8.516,10.161-15.742,10.161c-9.229-0.004-15.8-9.374-15.817-22.318
	c0.018-12.086,5.759-19.745,15.056-19.761c7.047-0.005,13.726,3.865,15.484,12.267l1.367,0.081h0.081l-1.194-13.983l-1.201-0.042
	c-0.566,1.147-1.796,1.323-2.604,1.323c-2.76,0-5.414-1.538-12.44-1.531c-13.788,0.002-23.525,9.199-23.529,23.95
	c0.004,13.652,9.546,23.176,22.769,23.18c9.789,0,15.099-5.273,18.944-11.678L495.751,34.517L495.751,34.517z"/>
<polygon fill="#333333" points="496.25,14.946 496.259,14.946 496.134,13.576 496.25,14.946 "/>
<polygon fill="#0E1131" points="404.321,21.513 404.321,21.179 404.321,21.513 404.321,21.513 "/>
<path fill="#333333" d="M428.031,35.202l-1.354-0.292c-2.392,6.658-4.69,9.005-9.723,8.998h-10.203
	c-2.835-0.002-3.129-0.619-3.132-1.889c0-0.229,0.006-0.476,0.006-0.748l0.079-16.183h6.345c4.313-0.017,6.053,0.999,6.343,5.62
	l1.197,0.084l0.077-15.001l-1.194-0.071c-0.466,4.7-2.551,5.968-6.423,5.953l-6.424-0.08l0.079-17.204h13.202
	c4.8,0,6.756,3.827,7.868,8.945l1.084,0.08h0.104l-1.188-11.939l-35.457-0.078l-0.08,0.927v0.018
	c4.17,0.008,5.908,2.687,5.912,6.468v30.678c-0.004,3.771-1.715,6.464-5.832,6.386l-0.08,1.023l0,0h36.777L428.031,35.202
	L428.031,35.202z"/>
<polygon fill="#333333" points="426.033,13.414 426.041,13.414 425.92,12.26 426.033,13.414 "/>
<path fill="#333333" d="M371.244,23.378h-0.361l-0.079,1.71c4.069,0.007,5.148,1.118,5.151,5.962v7.412
	c-0.01,5.109-3.943,7.486-11.748,7.491c-9.432-0.005-14.28-9.794-14.294-22.576c0.014-11.731,4.293-21.017,15.56-21.038
	c9.112-0.003,12.84,5.458,14.723,12.78l1.125,0.079h0.064l-0.934-13.725l-0.731-0.012c-1.375,0.741-2.962,0.777-3.274,0.777
	c-0.034,0-0.047,0.007-0.057,0.007c-1.746-0.053-6.662-2.048-10.916-2.048c-15.884,0.002-24.79,10.821-24.795,24.718
	c0.005,13.462,9.506,22.92,24.795,22.925c9.481,0,14.442-3.708,18.457-3.753V31.051c0.003-4.958,1.338-5.943,5.328-5.962
	l0.076-1.618v-0.015L371.244,23.378L371.244,23.378z"/>
<g>
	<defs>
		<rect id="SVGID_5_" width="900" height="200"/>
	</defs>
	<clipPath id="SVGID_6_">
		<use xlink:href="#SVGID_5_"  overflow="visible"/>
	</clipPath>
	<polygon clip-path="url(#SVGID_6_)" fill="#FFFFFF" points="381.463,15.199 381.466,15.199 381.41,14.438 381.463,15.199 	"/>
	<path clip-path="url(#SVGID_6_)" fill="#333333" d="M524.592,45.954c-9.113-0.002-14.789-9.208-14.801-22.062
		c0.012-13.022,5.572-21.803,15.054-21.807c9.229,0.004,14.786,8.972,14.8,22.321C539.631,37.313,533.95,45.954,524.592,45.954
		L524.592,45.954z M525.104-0.058c-14.223,0.003-24.294,9.76-24.301,23.696c0,13.807,10.176,24.201,24.042,24.204
		c13.769-0.003,23.779-10.338,23.786-24.204C548.624,10.073,538.739-0.055,525.104-0.058L525.104-0.058z"/>
</g>
<rect x="220.25" y="22.609" fill="#0E1131" width="0" height="0.178"/>
<polygon fill="#0E1131" points="220.327,26.191 220.35,26.191 220.327,26.191 220.327,26.191 "/>
<path fill="#333333" d="M181.289,2.085c9.229,0.004,14.532,8.964,14.549,22.321c-0.017,12.892-5.186,21.547-14.549,21.547
	c-9.119-0.002-14.785-9.208-14.799-22.062C166.504,10.877,171.809,2.089,181.289,2.085L181.289,2.085z M181.289,48.099
	c13.765-0.003,23.779-10.595,23.782-24.46c-0.003-13.565-9.892-23.437-23.527-23.439c-14.215,0.002-24.289,9.493-24.289,23.439
	C157.255,37.445,167.417,48.095,181.289,48.099L181.289,48.099z"/>
<path fill="#333333" d="M223.549,22.947l-3.377-0.08l0.078-18.479h3.807c5.645,0.008,8.7,3.425,8.706,9.789
	C232.752,20.201,229.153,22.935,223.549,22.947L223.549,22.947z M250.198,45.816c-1.971,0-4.621-2.881-4.739-3.009
	c-1.176-1.557-2.551-3.719-4.213-6.606l-2.79-4.855c-1.745-3.031-3.989-4.988-6.359-6.433l0.057-0.332
	c4.796-1.351,9.086-6.21,9.079-11.17c0-7.361-5.791-11.676-14.896-11.681l-19.82-0.078h-0.405l-0.08,0.925v0.019
	c4.105,0.006,5.911,2.748,5.919,6.466v30.425c-0.008,3.765-1.77,6.464-5.839,6.388l-0.077,1.021h19.973l0.08-0.931v-0.009
	c-4.093-0.005-5.913-2.506-5.916-6.469l0.078-13.381h1.265c2.287,0,4.162,0.997,5.903,3.361c1.203,1.629,3.665,5.088,6.604,10.234
	c2.958,5.183,6.408,7.885,10.596,7.885c2.474,0,4.598-0.513,5.508-0.75l0.073-0.879h-0.012L250.198,45.816L250.198,45.816z"/>
<path fill="#333333" d="M635.248,1.397v0.924l-0.077,0.02c3.555,0.009,5.915,2.722,5.923,7.491l-0.079,22.579l-0.321-0.03
	L615.877,1.475l-13.358-0.078h-0.265V2.34c3.9,0.16,5.637,1.924,7.11,4.427v31.695c-0.011,2.994-1.019,5.286-2.708,6.51
	c-0.538,0.434-1.177,0.738-1.883,0.855c-0.199,0.043-0.418,0.036-0.628,0.059c-0.187,0.021-0.374,0.046-0.567,0.055l-0.078,0.956
	h7.628h6.958l0.079-0.94c-3.401-0.005-5.712-2.698-5.886-7.002c-0.006-0.167-0.034-0.319-0.034-0.493l0.079-27.941l0.317,0.028
	l29.073,36.268l2.261,0.08V9.832c0.008-4.735,2.264-7.449,5.845-7.49V1.475L635.248,1.397L635.248,1.397z"/>
<g>
	<defs>
		<rect id="SVGID_7_" width="900" height="200"/>
	</defs>
	<clipPath id="SVGID_8_">
		<use xlink:href="#SVGID_7_"  overflow="visible"/>
	</clipPath>
	<path clip-path="url(#SVGID_8_)" fill="#333333" d="M727.303,1.397l-0.078,0.945c2.768,0.004,4.389,1.379,4.396,3.404
		c-0.01,1.025-1.29,3.054-1.788,3.875l-7.683,12.306l-0.578-0.041l-7.616-13.805c-0.283-0.525-1.021-2.189-1.025-2.85
		c0.004-1.608,0.674-2.886,3.378-2.89l0.681,0.078l0.081-0.945l-19.467-0.078l-0.073,0.945c4.605,0.314,4.645,1.344,7.678,6.425
		l10.416,17.425v12.785c-0.006,3.401-1.364,6.176-4.326,6.823v1.093h17.141v-1.071c-3.195-0.597-4.84-3.357-4.845-6.845
		l0.015-13.338l12.434-18.663c0.906-1.356,2.46-4.323,6.34-4.625l0.074-0.875L727.303,1.397L727.303,1.397z"/>
	<path clip-path="url(#SVGID_8_)" fill="#333333" d="M261.25,29.341l7.22-19.839l0.333,0.051l7.106,19.684l0.04,0.104H261.25
		L261.25,29.341z M277.438,45.874l-0.079,1.023h31.02H295.33l0.042-0.94c-0.321-0.024-0.631-0.066-0.928-0.116
		c-0.814-0.147-1.527-0.388-2.125-0.673c-0.086-0.044-0.167-0.085-0.248-0.13c-0.715-0.37-1.254-0.791-1.574-1.156
		c-0.979-1.107-1.54-3.299-2.047-4.626L273.496,0.167l-0.103-0.274c-2.5,1.68-5.505,2.769-8.395,3.552l-0.058,0.688
		c0.991,0.244,1.272,0.847,1.832,1.89L254.08,40.532c-1.189,3.26-2.168,5.358-5.581,5.342l-0.078,0.925v0.098h11.845l0.078-1.023
		c-3.189-0.264-4.13-1.302-4.13-2.299c0.005-0.61,0.579-1.804,1.021-3.09l2.865-8.235l16.826,0.051l3.3,8.693
		c0.281,0.742,0.764,1.511,0.769,2.327C280.989,44.294,280.429,45.954,277.438,45.874"/>
</g>
</svg>
