<?xml version="1.0" encoding="utf-8"?>
<!-- Generator: Adobe Illustrator 16.0.0, SVG Export Plug-In . SVG Version: 6.00 Build 0)  -->
<!DOCTYPE svg PUBLIC "-//W3C//DTD SVG 1.1//EN" "http://www.w3.org/Graphics/SVG/1.1/DTD/svg11.dtd">
<svg version="1.1" id="Layer_1" xmlns="http://www.w3.org/2000/svg" xmlns:xlink="http://www.w3.org/1999/xlink" x="0px" y="0px"
	 width="422px" height="50px" viewBox="0 0 422 50" enable-background="new 0 0 422 50" xml:space="preserve">
<g>
	<path fill="#FFFFFF" d="M47.707,24.405c0,15.003-9.827,25.092-23.749,25.092c-14.216,0-23.683-8.941-23.683-24.306
		C0.276,10.189,10.07,0.1,24.024,0.1C38.208,0.1,47.707,9.042,47.707,24.405z M11.413,24.93c0,14.282,5.732,23.355,12.808,23.355
		c7.501,0,12.349-9.729,12.349-23.618c0-14.281-5.732-23.355-12.84-23.355C16.228,1.312,11.413,11.041,11.413,24.93z"/>
	<path fill="#FFFFFF" d="M92.55,48.548c-0.263-2.751-0.688-3.965-1.638-3.965c-0.393,0-0.852,0.196-1.408,0.558
		c-3.276,2.326-6.617,4.356-12.382,4.356c-14.216,0-23.683-8.941-23.683-24.306c0-15.002,9.794-25.091,23.748-25.091
		c5.896,0,9.368,2.096,12.316,4.357c0.491,0.393,0.95,0.589,1.31,0.589c0.95,0,1.474-1.245,1.737-3.996h1.539
		c-0.196,3.439-0.262,8.058-0.262,16.247h-1.572c-0.721-6.158-1.572-9.401-5.044-12.152c-2.228-2.162-5.307-3.308-8.484-3.308
		c-9.63,0-13.364,11.235-13.364,23.093c0,12.022,4.028,22.93,13.626,22.93c2.948,0,6.191-1.081,8.353-3.243
		c3.472-2.687,4.291-6.42,4.914-12.972h1.572c0,8.516,0.065,13.333,0.262,16.903H92.55z"/>
	<path fill="#FFFFFF" d="M160.346,45.6c-2.392,2.751-4.979,3.897-8.91,3.897c-4.815,0-8.058-1.67-9.073-7.271l-1.18-6.683
		c-0.983-5.602-2.063-9.533-6.256-9.533h-4.357v15.429c0,4.881,0.787,5.569,5.044,5.766v1.344c-2.424-0.132-6.42-0.197-10.154-0.197
		c-4.291,0-8.32,0.065-10.581,0.197v-1.344c4.259-0.196,5.012-0.885,5.012-5.766V8.158c0-4.88-0.787-5.568-5.012-5.765V1.05
		c2.261,0.131,6.42,0.196,10.187,0.196c4.39,0,8.844-0.131,10.548-0.131c12.48,0,18.573,4.292,18.573,11.662
		c0,5.438-3.308,11.628-15.067,12.971h0.032c8.124,0.688,11.694,3.275,12.874,8.845l1.506,6.912c0.753,3.57,1.507,4.814,3.177,4.814
		c1.146,0,1.867-0.522,2.719-1.54L160.346,45.6z M133.453,24.667c7.926,0,9.597-4.979,9.597-11.137
		c0-7.042-2.228-11.137-8.32-11.137c-3.439,0-4.16,1.146-4.16,5.765v16.509H133.453z"/>
	<path fill="#FFFFFF" d="M195.979,35.552c-0.126,1.192-0.188,2.824-0.188,4.645c0,1.633,0.125,5.024,0.44,8.352
		c-4.176-0.188-9.952-0.188-14.063-0.188c-4.112,0-13.248,0-19.934,0.188v-1.29c4.112-0.188,4.835-0.845,4.835-5.523V16.276
		c0-4.708-0.785-5.336-4.835-5.525V9.465c6.687,0.188,15.822,0.188,19.934,0.188c3.735,0,9.009,0,12.776-0.188
		c-0.313,3.076-0.439,6.215-0.439,7.722c0,1.538,0.062,3.014,0.188,3.986h-1.475c-1.318-7.627-4.52-10.233-9.888-10.233h-2.386
		c-3.108,0-4.05,0.533-4.05,4.175v13.122h3.013c4.521,0,5.996-4.238,6.498-6.938h1.476c-0.188,2.166-0.22,3.735-0.22,4.991
		c0,1.005,0.032,1.82,0.032,2.574c0,1.758,0.063,3.674,0.376,7.597h-1.475c-0.502-3.547-2.229-6.938-6.687-6.938h-3.013v13.373
		c0,3.643,0.941,4.174,4.05,4.174h2.762c5.902,0,9.387-2.918,10.799-11.519H195.979z"/>
	<path fill="#FFFFFF" d="M236.607,48.548c-0.125-1.163-0.439-2.387-1.349-2.387c-0.817,0-2.104,0.595-3.203,1.131
		c-1.632,0.753-5.399,2.164-9.889,2.164c-14.031,0-22.224-7.283-22.224-19.681c0-13.06,9.229-21.222,22.256-21.222
		c5.714,0,8.444,2.009,11.301,4.175c0.502,0.408,0.941,0.627,1.318,0.627c0.848,0,1.318-1.162,1.569-3.892h1.507
		c-0.219,2.762-0.282,6.372-0.282,12.838h-1.476c-0.565-2.824-1.443-5.524-3.202-7.564c-2.228-2.449-4.771-4.489-8.946-4.489
		c-8.476,0-13.749,7.377-13.749,18.803c0,13.373,4.457,19.119,12.776,19.119c1.538,0,2.763-0.347,3.704-0.913
		c0.941-0.563,1.317-1.443,1.317-2.762v-5.964c0-5.211-1.004-5.994-6.089-6.184v-1.287c2.763,0.125,7.251,0.188,10.61,0.188
		c3.421,0,6.372-0.063,8.225-0.188v1.287c-2.48,0.189-2.889,0.754-2.889,5.525v10.674H236.607z"/>
	<path fill="#FFFFFF" d="M262.98,10.751c-4.111,0.188-4.834,0.816-4.834,5.525v25.458c0,4.679,0.723,5.336,4.834,5.523v1.29
		c-2.228-0.126-6.12-0.188-9.542-0.188c-3.955,0-7.849,0.062-9.951,0.188v-1.29c4.112-0.188,4.834-0.845,4.834-5.523V16.276
		c0-4.708-0.785-5.336-4.834-5.525V9.465c2.103,0.125,5.996,0.188,9.951,0.188c3.422,0,7.314-0.062,9.542-0.188V10.751z"/>
	<path fill="#FFFFFF" d="M269.389,33.321c0.597,8.789,4.71,14.661,12.84,14.661c3.483,0,7.157-1.666,7.157-5.901
		c0-3.705-3.139-5.81-8.853-9.074c-6.655-3.798-12.556-7.784-12.556-14.031c0-6.969,6.497-10.422,14.785-10.422
		c4.363,0,7.032,1.225,9.01,2.386c1.004,0.597,1.6,0.91,2.165,0.91c0.849,0,1.162-1.036,1.413-2.857h1.474
		c-0.188,2.323-0.313,5.149-0.313,13.373h-1.474c-0.91-7.565-5.024-12.399-11.615-12.399c-4.302,0-7.157,2.103-7.157,5.054
		c0,4.081,4.394,6.31,10.36,9.919c6.184,3.516,11.958,7.095,11.958,13.592c0,7.252-6.779,10.924-15.884,10.924
		c-4.677,0-7.753-1.474-9.919-2.511c-1.068-0.532-1.728-0.784-2.229-0.784c-0.848,0-1.162,0.973-1.413,2.825h-1.475
		c0.188-2.67,0.251-6.467,0.251-15.665H269.389z"/>
	<path fill="#FFFFFF" d="M301.386,23.873c0.126-1.349,0.189-3.453,0.189-5.681c0-1.696-0.126-5.243-0.473-8.727
		c5.589,0.188,13.404,0.188,18.898,0.188c5.62,0,13.56,0,19.242-0.188c-0.313,3.484-0.469,7.031-0.469,8.727
		c0,2.229,0.092,4.332,0.219,5.681h-1.477c-1.756-9.542-4.33-12.933-10.421-12.933h-2.01v30.136c0,5.211,1.101,5.994,6.497,6.182
		v1.29c-2.32-0.126-7.971-0.188-11.582-0.188c-3.83,0-9.165,0.062-11.237,0.188v-1.29c5.397-0.188,6.497-0.971,6.497-6.182V10.94
		h-2.009c-6.089,0-8.663,3.391-10.39,12.933H301.386z"/>
	<path fill="#FFFFFF" d="M376.976,35.552c-0.124,1.192-0.188,2.824-0.188,4.645c0,1.633,0.127,5.024,0.441,8.352
		c-4.178-0.188-9.952-0.188-14.066-0.188c-4.11,0-13.245,0-19.933,0.188v-1.29c4.114-0.188,4.834-0.845,4.834-5.523V16.276
		c0-4.708-0.783-5.336-4.834-5.525V9.465c6.688,0.188,15.822,0.188,19.933,0.188c3.736,0,9.011,0,12.779-0.188
		c-0.316,3.076-0.44,6.215-0.44,7.722c0,1.538,0.062,3.014,0.188,3.986h-1.475c-1.318-7.627-4.52-10.233-9.889-10.233h-2.386
		c-3.106,0-4.052,0.533-4.052,4.175v13.122h3.016c4.521,0,5.995-4.238,6.496-6.938h1.477c-0.187,2.166-0.218,3.735-0.218,4.991
		c0,1.005,0.031,1.82,0.031,2.574c0,1.758,0.061,3.674,0.375,7.597h-1.476c-0.502-3.547-2.227-6.938-6.686-6.938h-3.016v13.373
		c0,3.643,0.945,4.174,4.052,4.174h2.763c5.902,0,9.385-2.918,10.799-11.519H376.976z"/>
	<path fill="#FFFFFF" d="M421.978,45.848c-1.914,2.197-4.237,3.608-8.287,3.608c-5.18,0-7.534-2.322-8.254-5.24l-1.854-7.566
		c-1.005-5.023-2.919-5.965-6.402-5.965h-2.137v11.05c0,4.679,0.755,5.336,4.837,5.523v1.29c-2.481-0.126-6.624-0.188-10.486-0.188
		c-3.671,0-7.062,0.062-9.008,0.188v-1.29c4.11-0.188,4.833-0.845,4.833-5.523V16.276c0-4.771-0.783-5.336-4.833-5.525V9.465
		c1.946,0.125,5.492,0.188,8.602,0.188c4.269,0,8.599-0.125,10.233-0.125c11.896,0,17.169,3.893,17.169,9.825
		c0,4.552-3.233,9.669-14.817,10.83c0.629,0.062,1.227,0.126,1.887,0.22c5.524,0.659,9.635,2.165,10.798,6.938l1.35,5.746
		c0.597,2.51,1.38,3.327,2.697,3.327c0.974,0,1.979-0.629,2.764-1.414L421.978,45.848z M397.808,29.397
		c6.875,0,8.287-4.143,8.287-9.354c0-5.964-2.009-9.292-7.724-9.292c-2.763,0-3.328,1.099-3.328,5.525v13.121H397.808z"/>
</g>
</svg>
